<svg id="visual" viewBox="0 0 900 600" width="900" height="600" xmlns="http://www.w3.org/2000/svg" xmlns:xlink="http://www.w3.org/1999/xlink" version="1.1"><path d="M0 91L18.8 94C37.7 97 75.3 103 112.8 98C150.3 93 187.7 77 225.2 72C262.7 67 300.3 73 337.8 69C375.3 65 412.7 51 450.2 53C487.7 55 525.3 73 562.8 76C600.3 79 637.7 67 675.2 64C712.7 61 750.3 67 787.8 74C825.3 81 862.7 89 881.3 93L900 97L900 0L881.3 0C862.7 0 825.3 0 787.8 0C750.3 0 712.7 0 675.2 0C637.7 0 600.3 0 562.8 0C525.3 0 487.7 0 450.2 0C412.7 0 375.3 0 337.8 0C300.3 0 262.7 0 225.2 0C187.7 0 150.3 0 112.8 0C75.3 0 37.7 0 18.8 0L0 0Z" fill="#001122"></path><path d="M0 133L18.8 137C37.7 141 75.3 149 112.8 150C150.3 151 187.7 145 225.2 145C262.7 145 300.3 151 337.8 145C375.3 139 412.7 121 450.2 120C487.7 119 525.3 135 562.8 134C600.3 133 637.7 115 675.2 106C712.7 97 750.3 97 787.8 101C825.3 105 862.7 113 881.3 117L900 121L900 95L881.3 91C862.7 87 825.3 79 787.8 72C750.3 65 712.7 59 675.2 62C637.7 65 600.3 77 562.8 74C525.3 71 487.7 53 450.2 51C412.7 49 375.3 63 337.8 67C300.3 71 262.7 65 225.2 70C187.7 75 150.3 91 112.8 96C75.3 101 37.7 95 18.8 92L0 89Z" fill="#09182a"></path><path d="M0 193L18.8 194C37.7 195 75.3 197 112.8 194C150.3 191 187.7 183 225.2 182C262.7 181 300.3 187 337.8 179C375.3 171 412.7 149 450.2 149C487.7 149 525.3 171 562.8 175C600.3 179 637.7 165 675.2 158C712.7 151 750.3 151 787.8 154C825.3 157 862.7 163 881.3 166L900 169L900 119L881.3 115C862.7 111 825.3 103 787.8 99C750.3 95 712.7 95 675.2 104C637.7 113 600.3 131 562.8 132C525.3 133 487.7 117 450.2 118C412.7 119 375.3 137 337.8 143C300.3 149 262.7 143 225.2 143C187.7 143 150.3 149 112.8 148C75.3 147 37.7 139 18.8 135L0 131Z" fill="#111f32"></path><path d="M0 253L18.8 252C37.7 251 75.3 249 112.8 248C150.3 247 187.7 247 225.2 250C262.7 253 300.3 259 337.8 250C375.3 241 412.7 217 450.2 219C487.7 221 525.3 249 562.8 250C600.3 251 637.7 225 675.2 217C712.7 209 750.3 219 787.8 228C825.3 237 862.7 245 881.3 249L900 253L900 167L881.3 164C862.7 161 825.3 155 787.8 152C750.3 149 712.7 149 675.2 156C637.7 163 600.3 177 562.8 173C525.3 169 487.7 147 450.2 147C412.7 147 375.3 169 337.8 177C300.3 185 262.7 179 225.2 180C187.7 181 150.3 189 112.8 192C75.3 195 37.7 193 18.8 192L0 191Z" fill="#19253b"></path><path d="M0 373L18.8 371C37.7 369 75.3 365 112.8 351C150.3 337 187.7 313 225.2 307C262.7 301 300.3 313 337.8 321C375.3 329 412.7 333 450.2 341C487.7 349 525.3 361 562.8 354C600.3 347 637.7 321 675.2 310C712.7 299 750.3 303 787.8 306C825.3 309 862.7 311 881.3 312L900 313L900 251L881.3 247C862.7 243 825.3 235 787.8 226C750.3 217 712.7 207 675.2 215C637.7 223 600.3 249 562.8 248C525.3 247 487.7 219 450.2 217C412.7 215 375.3 239 337.8 248C300.3 257 262.7 251 225.2 248C187.7 245 150.3 245 112.8 246C75.3 247 37.7 249 18.8 250L0 251Z" fill="#222c44"></path><path d="M0 493L18.8 482C37.7 471 75.3 449 112.8 440C150.3 431 187.7 435 225.2 444C262.7 453 300.3 467 337.8 474C375.3 481 412.7 481 450.2 475C487.7 469 525.3 457 562.8 443C600.3 429 637.7 413 675.2 421C712.7 429 750.3 461 787.8 470C825.3 479 862.7 465 881.3 458L900 451L900 311L881.3 310C862.7 309 825.3 307 787.8 304C750.3 301 712.7 297 675.2 308C637.7 319 600.3 345 562.8 352C525.3 359 487.7 347 450.2 339C412.7 331 375.3 327 337.8 319C300.3 311 262.7 299 225.2 305C187.7 311 150.3 335 112.8 349C75.3 363 37.7 367 18.8 369L0 371Z" fill="#2b334d"></path><path d="M0 601L18.8 601C37.7 601 75.3 601 112.8 601C150.3 601 187.7 601 225.2 601C262.7 601 300.3 601 337.8 601C375.3 601 412.7 601 450.2 601C487.7 601 525.3 601 562.8 601C600.3 601 637.7 601 675.2 601C712.7 601 750.3 601 787.8 601C825.3 601 862.7 601 881.3 601L900 601L900 449L881.3 456C862.7 463 825.3 477 787.8 468C750.3 459 712.7 427 675.2 419C637.7 411 600.3 427 562.8 441C525.3 455 487.7 467 450.2 473C412.7 479 375.3 479 337.8 472C300.3 465 262.7 451 225.2 442C187.7 433 150.3 429 112.8 438C75.3 447 37.7 469 18.8 480L0 491Z" fill="#343a56"></path></svg>